<svg xmlns="http://www.w3.org/2000/svg" viewBox="0 0 64 64" width="64" height="64">
  <!-- Fortune cookie body -->
  <path d="M8 34c0-8 6-18 24-18s24 10 24 18c0 4-4 8-10 10l-6-10c-2-3-6-3-8 0l-6 10c-6-2-10-6-10-10z" fill="#e8a838"/>
  <path d="M8 34c0-8 6-18 24-18s24 10 24 18c0 2-1 4-3 6-2-6-8-14-21-14S13 34 11 40c-2-2-3-4-3-6z" fill="#f0c050"/>
  <!-- Cookie fold shadow -->
  <path d="M26 44l6-10c1-1.5 3-1.5 4 0l6 10" fill="none" stroke="#c08020" stroke-width="1.5" stroke-linecap="round"/>
  <!-- Fortune paper sticking out -->
  <rect x="24" y="20" width="16" height="4" rx="1" fill="#fff8e8" transform="rotate(-5 32 22)"/>
  <rect x="25" y="21" width="12" height="0.8" rx="0.4" fill="#d4a040" opacity="0.4" transform="rotate(-5 32 22)"/>
</svg>
